{"title":"Khumba 2013 BDRiP AC3-5 1 XviD-AXED ","uid":9408867,"size":1485946173,"categoryP":"video","categoryS":"movies","magnet":"?xt=urn:btih:23f6c982f24c92e87a73696cf98f5c157df589d3&amp;dn=Khumba+2013+BDRiP+AC3-5+1+XviD-AXED+&amp;tr=udp%3A%2F%2Ftracker.openbittorrent.com%3A80&amp;tr=udp%3A%2F%2Fopen.demonii.com%3A1337&amp;tr=udp%3A%2F%2Ftracker.coppersurfer.tk%3A6969&amp;tr=udp%3A%2F%2Fexodus.desync.com%3A6969","seeders":3,"leechers":1,"uploader":"HeroMaster","files":-1,"time":1388231506,"description":"(  ___  )|     /|(  ____ (  __  \n| (   ) |(    / )| (    /| (    )\n| (___) |  (_) / | (__    | |   ) |\n|  ___  |  ) _ (  |  __)   | |   | |\n| (   ) | / ( )  | (      | |   ) |\n| )   ( |( /    )| (____/| (__/  )\n|/     ||/     |(_______/(______/\n  _    _    _    _    _    _    _    _  \n /   /   /   /   /   /   /   / \n( p )( r )( e )( s )( e )( n )( t )( s )\n _/  _/  _/  _/  _/  _/  _/  _/\n \n\nKhumba.2013.BDRiP.AC3-5.1.XviD-AXED\n \n\nIMDB: &lt;a href=&quot;\nhttp://www.imdb.com/title/tt1487931&quot; rel=&quot;nofollow&quot; target=&quot;_NEW&quot;&gt;\nhttp://www.imdb.com/title/tt1487931&lt;/a&gt;\n \n\nPLOT INFO:\nRejected by his superstitious herd, a half-striped zebra embarks on a daring \nquest to earn his stripes but finds the courage and self-acceptance to save all \nthe animals of the Great Karoo.\n\n \nMedia Info:\nGeneral\nComplete name                            : Khumba.2013.BDRiP.AC3-5.1.XviD-AXED.avi\nFormat                                   : AVI\nFormat/Info                              : Audio Video Interleave\nFile size                                : 1.37 GiB\nDuration                                 : 1h 25mn\nOverall bit rate                         : 2 296 Kbps\n \n\nVideo:\nID                                       : 0\nFormat                                   : MPEG-4 Visual\nFormat profile                           : Advanced Simple@L5\nFormat settings, BVOP                    : 2\nFormat settings, QPel                    : No\nFormat settings, GMC                     : No warppoints\nFormat settings, Matrix                  : Default (H.263)\nMuxing mode                              : Packed bitstream\nCodec ID                                 : XVID\nCodec ID/Hint                            : XviD\nDuration                                 : 1h 25mn\nBit rate                                 : 1 648 Kbps\nWidth                                    : 720 pixels\nHeight                                   : 304 pixels\nDisplay aspect ratio                     : 2.35:1\nFrame rate                               : 23.976 fps\nColor space                              : YUV\nChroma subsampling                       : 4:2:0\nBit depth                                : 8 bits\nScan type                                : Progressive\nCompression mode                         : Lossy\nBits/(Pixel*Frame)                       : 0.314\nStream size                              : 1 006 MiB (72%)\nWriting library                          : XviD 64\n \n\nAudio:\nID                                       : 1\nFormat                                   : AC-3\nFormat/Info                              : Audio Coding 3\nMode extension                           : CM (complete main)\nFormat settings, Endianness              : Big\nCodec ID                                 : 2000\nDuration                                 : 1h 25mn\nBit rate mode                            : Constant\nBit rate                                 : 640 Kbps\nChannel(s)                               : 6 channels\nChannel positions                        : Front: L C R, Side: L R, LFE\nSampling rate                            : 48.0 KHz\nBit depth                                : 16 bits\nCompression mode                         : Lossy\nStream size                              : 390 MiB (28%)\nAlignment                                : Aligned on interleaves\nInterleave, duration                     : 64 ms (1.53 video frames)\nInterleave, preload duration             : 192 ms\nTitle                                    : 3_2ch 48KHz 640Kbps DELAY 0ms\n \n\nSOURCE: \nRetail RA Blu-Ray DISC\n \n\nNOTES: \nNot much to say, kids might enjoy this one. AXED! We are?\n \n\nPoster:\n\n &lt;a href=&quot;\nhttp://i.imgur.com/Bo6VsVj.jpg&quot; rel=&quot;nofollow&quot; target=&quot;_NEW&quot;&gt;\nhttp://i.imgur.com/Bo6VsVj.jpg&lt;/a&gt;\n\n\nScreenshots:\n\n &lt;a href=&quot;\nhttp://i.imgur.com/DGKyWIP.jpg&quot; rel=&quot;nofollow&quot; target=&quot;_NEW&quot;&gt;\nhttp://i.imgur.com/DGKyWIP.jpg&lt;/a&gt;\n\n\nSEED AND ENJOY!","torrent":{"xt":"urn:btih:23f6c982f24c92e87a73696cf98f5c157df589d3","amp;dn":"Khumba+2013+BDRiP+AC3-5+1+XviD-AXED+","amp;tr":["udp%3A%2F%2Ftracker.openbittorrent.com%3A80","udp%3A%2F%2Fopen.demonii.com%3A1337","udp%3A%2F%2Ftracker.coppersurfer.tk%3A6969","udp%3A%2F%2Fexodus.desync.com%3A6969"],"infoHash":"23f6c982f24c92e87a73696cf98f5c157df589d3","infoHashBuffer":{"type":"Buffer","data":[35,246,201,130,242,76,146,232,122,115,105,108,249,143,92,21,125,245,137,211]},"announce":[],"urlList":[]}}